<svg version="1.2" xmlns="http://www.w3.org/2000/svg" viewBox="0 0 48 48" width="48" height="48">
    <style>
        .a{
            fill: #fff;
        }
        .b {
            fill: none;
            stroke: #fff;
            stroke-miterlimit: 100;
            stroke-width: 5
        }
    </style>
    <path fill-rule="evenodd" class="a"
        d="m24 28.2q-1.2 0-2.1-0.4-0.6-0.3-1-0.6v5.7h-3.6v-16.6h3.7v0.8q0.4-0.3 0.9-0.5 0.9-0.5 2.1-0.5 1.7 0 2.9 0.8 1.3 0.8 2.1 2.1 0.7 1.4 0.7 3.2 0 1.7-0.7 3.1-0.8 1.4-2.1 2.1-1.2 0.8-2.9 0.8zm-0.7-3.3q0.8 0 1.4-0.3 0.6-0.4 0.9-1 0.4-0.6 0.4-1.4 0-0.8-0.4-1.5-0.3-0.6-0.9-0.9-0.6-0.4-1.3-0.4-0.8 0-1.4 0.4-0.6 0.3-0.9 0.9-0.3 0.7-0.3 1.5 0 0.8 0.3 1.4 0.3 0.6 0.9 1 0.6 0.3 1.3 0.3zm10.3 3.4q-0.9 0-1.6-0.7-0.6-0.6-0.6-1.5 0-1 0.6-1.6 0.7-0.7 1.6-0.7 1 0 1.6 0.7 0.6 0.6 0.6 1.6 0 0.9-0.6 1.5-0.6 0.7-1.6 0.7z" />
    <path class="b" d="m24 45c-11.6 0-21-9.4-21-21 0-11.6 9.4-21 21-21 11.6 0 21 9.4 21 21 0 11.6-9.4 21-21 21z" />
</svg>